<svg xmlns="http://www.w3.org/2000/svg" viewBox="0 0 100 100">
  <rect width="100" height="100" fill="#FFD93D"/>
  <g transform="translate(50, 50)">
    <!-- Cabeça do carcará -->
    <ellipse cx="0" cy="-5" rx="22" ry="26" fill="#092D22"/>
    <ellipse cx="0" cy="-5" rx="16" ry="20" fill="#F5F3E8"/>
    
    <!-- Olho -->
    <circle cx="3" cy="-8" r="5" fill="#092D22"/>
    <circle cx="4" cy="-9" r="2" fill="#F5F3E8"/>
    
    <!-- Bico -->
    <path d="M 8,-5 Q 18,-3 20,2 Q 18,0 8,0 Z" fill="#092D22"/>
    <path d="M 8,-3 Q 15,-2 16,0 Q 15,-1 8,-1 Z" fill="#555"/>
    
    <!-- Crista/penas superiores -->
    <path d="M -12,-22 Q -15,-28 -12,-30 Q -10,-26 -8,-22 Z" fill="#092D22"/>
    <path d="M -5,-24 Q -7,-30 -4,-32 Q -2,-28 0,-24 Z" fill="#092D22"/>
    <path d="M 3,-25 Q 2,-31 5,-32 Q 7,-28 8,-24 Z" fill="#092D22"/>
    
    <!-- Corpo/pescoço -->
    <ellipse cx="0" cy="15" rx="18" ry="22" fill="#092D22"/>
    <ellipse cx="0" cy="15" rx="12" ry="16" fill="#F5F3E8"/>
    
    <!-- Detalhes de penas no peito -->
    <path d="M -8,12 Q -6,14 -4,12" stroke="#092D22" stroke-width="1" fill="none"/>
    <path d="M -8,16 Q -6,18 -4,16" stroke="#092D22" stroke-width="1" fill="none"/>
    <path d="M -8,20 Q -6,22 -4,20" stroke="#092D22" stroke-width="1" fill="none"/>
    <path d="M 4,12 Q 6,14 8,12" stroke="#092D22" stroke-width="1" fill="none"/>
    <path d="M 4,16 Q 6,18 8,16" stroke="#092D22" stroke-width="1" fill="none"/>
    <path d="M 4,20 Q 6,22 8,20" stroke="#092D22" stroke-width="1" fill="none"/>
  </g>
</svg>
